<?xml version="1.0" encoding="iso-8859-1"?>
<!-- Uploaded to: SVG Repo, www.svgrepo.com, Generator: SVG Repo Mixer Tools -->
<svg fill="#000000" height="800px" width="800px" version="1.1" id="Layer_1" xmlns="http://www.w3.org/2000/svg" xmlns:xlink="http://www.w3.org/1999/xlink" 
	 viewBox="0 0 512 512" xml:space="preserve">
<g>
	<g>
		<path d="M484.695,246.518H378.771c1.065-2.985,0.489-6.183,0.489-9.528V47.455c0-15.711-11.595-28.492-27.305-28.492H162.417
			c-15.711,0-29.676,12.781-29.676,28.492v189.536c0,3.345,1.794,6.543,2.859,9.528H29.676C13.965,246.518,0,259.3,0,275.01v189.536
			c0,15.709,13.965,28.491,29.676,28.491h189.537c15.711,0,27.305-12.781,27.305-28.491V275.01c0-3.346,0.576-6.544-0.489-9.529
			h22.31c-1.065,2.985-2.859,6.183-2.859,9.529v189.536c0,15.709,13.965,28.491,29.676,28.491h189.537
			c15.711,0,27.305-12.781,27.305-28.491V275.01C512,259.3,500.405,246.518,484.695,246.518z M227.556,464.546
			c0,5.253-3.088,9.528-8.343,9.528H29.676c-5.255,0-10.713-4.274-10.713-9.528V275.01c0-5.255,5.458-9.529,10.713-9.529h132.741
			h56.796c5.255,0,8.343,4.274,8.343,9.529V464.546z M219.213,246.518h-56.796c-5.255,0-10.713-4.274-10.713-9.528V47.455
			c0-5.255,5.458-9.529,10.713-9.529h189.537c5.255,0,8.343,4.274,8.343,9.529v189.536c0,5.253-3.088,9.528-8.343,9.528h-56.796
			H219.213z M493.037,464.546c0,5.253-3.088,9.528-8.343,9.528H295.157c-5.255,0-10.713-4.274-10.713-9.528V275.01
			c0-5.255,5.458-9.529,10.713-9.529h56.796h132.741c5.255,0,8.343,4.274,8.343,9.529V464.546z"/>
	</g>
</g>
<g>
	<g>
		<path d="M67.556,284.444c-15.685,0-28.444,12.76-28.444,28.444s12.759,28.444,28.444,28.444c15.685,0,28.444-12.76,28.444-28.444
			S83.241,284.444,67.556,284.444z M67.556,322.37c-5.229,0-9.481-4.253-9.481-9.481s4.252-9.482,9.481-9.482
			c5.229,0,9.482,4.253,9.482,9.482S72.785,322.37,67.556,322.37z"/>
	</g>
</g>
<g>
	<g>
		<path d="M124.444,341.333c-15.685,0-28.444,12.76-28.444,28.444s12.759,28.444,28.444,28.444c15.685,0,28.444-12.76,28.444-28.444
			S140.13,341.333,124.444,341.333z M124.444,379.259c-5.229,0-9.482-4.253-9.482-9.482s4.252-9.481,9.482-9.481
			c5.229,0,9.481,4.253,9.481,9.481S129.674,379.259,124.444,379.259z"/>
	</g>
</g>
<g>
	<g>
		<path d="M200.296,170.667c-15.685,0-28.444,12.76-28.444,28.444c0,15.684,12.759,28.444,28.444,28.444
			c15.685,0,28.444-12.76,28.444-28.444C228.741,183.427,215.982,170.667,200.296,170.667z M200.296,208.593
			c-5.229,0-9.482-4.253-9.482-9.481c0-5.228,4.252-9.482,9.482-9.482c5.229,0,9.481,4.253,9.481,9.482
			C209.778,204.339,205.526,208.593,200.296,208.593z"/>
	</g>
</g>
<g>
	<g>
		<path d="M314.074,56.889c-15.685,0-28.444,12.76-28.444,28.444c0,15.684,12.759,28.444,28.444,28.444
			c15.685,0,28.444-12.76,28.444-28.444C342.518,69.649,329.759,56.889,314.074,56.889z M314.074,94.815
			c-5.229,0-9.482-4.253-9.482-9.482s4.252-9.481,9.482-9.481c5.229,0,9.481,4.253,9.481,9.481S319.303,94.815,314.074,94.815z"/>
	</g>
</g>
<g>
	<g>
		<path d="M333.037,284.444c-15.685,0-28.444,12.76-28.444,28.444s12.759,28.444,28.444,28.444s28.444-12.76,28.444-28.444
			S348.722,284.444,333.037,284.444z M333.037,322.37c-5.229,0-9.482-4.253-9.482-9.481s4.252-9.482,9.482-9.482
			c5.229,0,9.481,4.253,9.481,9.482S338.266,322.37,333.037,322.37z"/>
	</g>
</g>
<g>
	<g>
		<path d="M333.037,398.222c-15.685,0-28.444,12.76-28.444,28.444s12.759,28.444,28.444,28.444s28.444-12.76,28.444-28.444
			S348.722,398.222,333.037,398.222z M333.037,436.148c-5.229,0-9.482-4.253-9.482-9.481s4.252-9.482,9.482-9.482
			c5.229,0,9.481,4.253,9.481,9.482S338.266,436.148,333.037,436.148z"/>
	</g>
</g>
<g>
	<g>
		<path d="M446.815,284.444c-15.685,0-28.444,12.76-28.444,28.444s12.759,28.444,28.444,28.444s28.444-12.76,28.444-28.444
			S462.5,284.444,446.815,284.444z M446.815,322.37c-5.229,0-9.482-4.253-9.482-9.481s4.252-9.482,9.482-9.482
			s9.482,4.253,9.482,9.482S452.044,322.37,446.815,322.37z"/>
	</g>
</g>
<g>
	<g>
		<path d="M446.815,398.222c-15.685,0-28.444,12.76-28.444,28.444s12.759,28.444,28.444,28.444s28.444-12.76,28.444-28.444
			S462.5,398.222,446.815,398.222z M446.815,436.148c-5.229,0-9.482-4.253-9.482-9.481s4.252-9.482,9.482-9.482
			s9.482,4.253,9.482,9.482S452.044,436.148,446.815,436.148z"/>
	</g>
</g>
<g>
	<g>
		<path d="M181.333,398.222c-15.685,0-28.444,12.76-28.444,28.444s12.759,28.444,28.444,28.444c15.685,0,28.444-12.76,28.444-28.444
			S197.019,398.222,181.333,398.222z M181.333,436.148c-5.229,0-9.481-4.253-9.481-9.481s4.252-9.482,9.481-9.482
			c5.229,0,9.482,4.253,9.482,9.482S186.563,436.148,181.333,436.148z"/>
	</g>
</g>
</svg>